<svg width="100%" height="100%" viewBox="0 0 32 32" version="1.1" xmlns="http://www.w3.org/2000/svg" xmlns:xlink="http://www.w3.org/1999/xlink" xml:space="preserve" style="fill-rule:evenodd;clip-rule:evenodd;stroke-linejoin:round;stroke-miterlimit:2;">
    <path d="M15.94,0C24.738,0 31.88,7.142 31.88,15.94C31.88,24.738 24.738,31.88 15.94,31.88C7.142,31.88 0,24.738 0,15.94C0,7.142 7.142,0 15.94,0ZM9.048,16C5.372,16 3.074,17.838 2.155,21.514C3.534,19.676 5.142,18.987 6.98,19.446C8.029,19.709 8.778,20.469 9.608,21.311C10.959,22.683 12.523,24.271 15.94,24.271C19.616,24.271 21.913,22.433 22.832,18.757C21.454,20.595 19.846,21.284 18.008,20.825C16.959,20.563 16.21,19.802 15.38,18.96C14.029,17.588 12.464,16 9.048,16ZM15.94,7.729C12.264,7.729 9.967,9.567 9.048,13.243C10.426,11.405 12.034,10.716 13.872,11.175C14.921,11.437 15.67,12.198 16.5,13.04C17.851,14.412 19.416,16 22.832,16C26.508,16 28.806,14.162 29.725,10.486C28.346,12.324 26.738,13.013 24.9,12.554C23.851,12.292 23.102,11.531 22.272,10.689C20.921,9.317 19.357,7.729 15.94,7.729Z" style="fill:rgb(132,204,22);"/>
</svg>
